Patient4_TMGait_0pt6_01_left_03_EMG.mot
version=1
nRows=13
nColumns=33
inDegrees=no
endheader
time	1LAddLong	2LGlutMax	3LGlutMed	4LIliopsoas	5LSemiMemb	6LBicFemLong	7LRecFem	8LVastMed	9LVastLat	10LGasMed	11LTibAnt	12lTibPost	13LPeroneusLong	14LSol	15LExtDigLong	16LFlexDigLong	17RAddLong	18RGlutMax	19RGlutMed	20RIliopsoas	21RSemiMemb	22RBicFemLong	23RRecFem	24RVastMed	25RVastLat	26RGasMed	27RTibAnt	28RTibPost	29RPeroneusLong	30RSol	31RExtDigLong	32RFlexDigLong
4.838	0.002136	0.066376	-0.037689	0.009308	0.057983	-0.006104	0.014648	0.003967	0.13412	-0.016022	-0.000458	-0.006104	-0.000305	-0.057373	-0.003815	0.00412	0.00946	-0.32638	0.79987	-0.028992	-0.01297	-0.0177	-0.23224	0.10193	0.15442	-0.007477	0.91614	0.00412	-0.60425	-0.081787	-0.007477	-0.005493
4.839	0.014648	0.042419	-0.088196	0.011749	0.020905	0.02121	0.00351	-0.000458	0.13336	-0.00946	0.009766	0.002594	-0.005341	-0.040131	-0.003052	0.010681	-0.001831	-0.30609	0.69946	0.079956	-0.000153	-0.018005	-0.091705	0.19272	0.084534	-0.011292	0.58823	-0.000916	-0.28168	-0.10407	-0.002747	-0.009155
4.84	0.001678	0.048523	-0.098267	-0.001984	-0.020447	0.019226	0.032654	-0.001678	0.12772	-0.028839	0.00473	-0.003662	-0.004578	-0.055847	-0.018616	0.00946	0.00412	-0.29526	0.00824	0.077209	-0.006256	0.004425	-0.05127	0.22583	-0.005951	0.001831	-0.75836	0.005646	-0.3093	-0.072021	-0.006104	-0.002136
4.841	0.00412	0.048065	-0.12268	0.014954	-0.045929	-0.016022	0.022125	0	0.12421	-0.007019	0.011597	-0.006104	0.013275	-0.051575	-0.013123	0.015869	0.012512	-0.3212	-0.23209	0.033722	-0.038605	0.002747	-0.047302	0.15564	-0.013428	-0.010223	-0.96069	0.003662	-0.13336	0.003967	-0.004425	-0.004578
4.842	-0.003357	0.044098	-0.081024	0.015259	0.009918	-0.006561	0.011292	-0.000916	0.12375	0.005188	0.016022	-0.006561	0.019379	-0.058136	-0.010834	-0.000763	0.002594	-0.23392	-0.29159	-0.012054	-0.13184	0.023956	0.007629	0.13763	-0.023193	0.012665	-0.92682	0.002136	-0.17746	0.040894	-0.005341	-0.011139
4.843	0.00473	0.005493	0.043793	-0.001831	0.032654	-0.020447	0.035553	-0.001068	0.12283	-0.008087	0.007935	-0.005951	0.022583	-0.090332	-0.005798	0.010071	-0.007019	-0.30579	-0.050354	0.030823	-0.084991	-0.002594	0.059357	0.030212	-0.051422	0.003052	-0.75592	-0.001831	-0.34485	0.052185	-0.002136	-0.013275
4.844	0.005188	0.011292	0.018005	0.014191	0.037994	-0.031433	0.016174	-0.001831	0.12573	-0.025177	0.005188	-0.007629	0.026703	-0.11231	-0.010376	0.00946	0.011902	-0.17136	0.089569	0.08316	0.022125	-0.059357	0.11307	-0.10193	-0.072021	0.000916	-0.51331	0.000305	-0.47852	0.008087	-0.002747	-0.014191
4.845	0.004883	0.026398	0.035858	0.003357	0.065765	-0.003357	0.026703	-0.007629	0.12619	-0.028229	0.013428	-0.009613	0.01358	-0.092163	-0.018005	-0.003357	0.022278	-0.08667	-0.49881	0.11719	0.019531	-0.069122	0.20493	-0.046234	-0.062714	0.01358	-0.13367	0.000763	0.092316	-0.075073	-0.004272	-0.009003
4.846	0.005951	0.060425	0.015717	0.012054	0.059052	0.041046	0.024261	0	0.11414	-0.049286	0.01358	0.001373	0.011597	-0.065613	-0.002136	0.00351	0.005951	-0.18158	-0.65781	0.056152	0.047913	-0.064545	0.22492	-0.1384	-0.062408	0.014038	0.26291	-0.000458	0.84915	-0.072021	-0.00351	-0.009155
4.847	0.009155	0.03479	-0.010223	0.008545	0.008392	0.038147	0.016174	-0.006561	0.11566	-0.047302	0.011444	-0.032501	-0.005951	-0.069885	-0.002136	0.004578	0.009308	-0.30838	-0.31158	-0.00061	0.058899	-0.034332	0.11841	-0.14114	-0.041962	0.000763	0.34332	-0.001526	-0.95871	0.042267	-0.003662	0.002136
4.848	0.005951	0.010986	-0.019531	0.005493	-0.00946	0.007782	0.013733	-0.003967	0.10925	-0.041504	0.002289	-0.003815	-0.000153	-0.054626	0.005035	-0.000153	0.008087	-0.3978	0.57785	-0.031738	0.050354	-0.005035	0.084991	-0.13351	0.080261	-0.00946	0.34332	0.000153	-1.1188	0.090027	-0.002899	-0.013123
4.849	0.010681	0.017395	-0.04776	0.007477	0.027771	0.022736	0.004883	-0.002289	0.10712	-0.021973	0.003204	-0.00351	0.002899	-0.058899	0.003357	0.003967	-0.001373	-0.36911	1.2776	-0.017395	0.034485	0.002747	0.014343	-0.12909	0.00412	-0.006104	0.59067	-0.001984	-0.47867	0.033875	-0.010681	-0.006714
4.85	0.003204	-0.010071	-0.046234	-0.010529	0.054321	0.037231	-0.003357	-0.002899	0.092926	-0.016785	0.004883	-0.002899	0.016632	-0.061646	-0.00885	-0.001678	-0.00885	-0.34866	0.61615	0.014343	0.013733	0.002136	0.20584	-0.10788	0.005035	-0.013123	0.96954	-0.00061	-0.24811	0.02243	-0.001526	-0.000458
